# xmcd
#
# Track frame offsets:
#	150
#	13385
#	28517
#	40810
#	59295
#	72032
#	84722
#	97920
#	109230
#	125605
#	139137
#
# Disc length: 2013 seconds
#
# Revision: 0
# Processed by: cddbd v1.5.2PL0 Copyright (c) Steve Scherf et al.
# Submitted via: dBpowerAMP V4.0
#
DISCID=9407db0b
DTITLE=Georges Hamel - Mes premières chansons
DYEAR=1995
DGENRE=Country
TTITLE0=Orphelin sur la route
TTITLE1=Soleil d'été
TTITLE2=Ce que je  veux
TTITLE3=Instance de divorce
TTITLE4=L'inflation
TTITLE5=Refrain plein la tête
TTITLE6=Je chante
TTITLE7=La création
TTITLE8=Pourquoi faut-il?
TTITLE9=Pour les mariés
TTITLE10=Le voisin d'à coté
EXTD=
EXTT0=
EXTT1=
EXTT2=
EXTT3=
EXTT4=
EXTT5=
EXTT6=
EXTT7=
EXTT8=
EXTT9=
EXTT10=
PLAYORDER=
